<?xml version="1.0" encoding="iso-8859-1"?>
<!-- Generator: Adobe Illustrator 19.0.0, SVG Export Plug-In . SVG Version: 6.00 Build 0)  -->
<svg version="1.1" id="Layer_1" xmlns="http://www.w3.org/2000/svg" xmlns:xlink="http://www.w3.org/1999/xlink" x="0px" y="0px"
	 viewBox="0 0 352.457 352.457" style="enable-background:new 0 0 352.457 352.457;" xml:space="preserve">
<g>
	<g>
		<path d="M313.023,72.418L241.895,1.29c-0.43-0.774-1.29-1.29-2.409-1.29H52.336c-7.569,0-13.847,6.193-13.847,13.847V338.61
			c0,7.569,6.193,13.847,13.847,13.847h247.786c7.311,0,13.503-6.192,13.847-13.847V74.482
			C313.797,73.536,313.539,72.934,313.023,72.418z M308.292,338.523h-0.085v0.001c0,4.472-3.698,8.171-8.171,8.171H52.25
			c-4.472,0-8.171-3.698-8.171-8.171V13.761c0-4.472,3.698-8.171,8.171-8.171h184.399v50.486c0,11.525,9.547,21.158,21.157,21.158
			h25.63c1.376,0,2.838-1.118,2.838-2.838s-1.118-2.838-2.838-2.838h-25.63c-8.429,0-15.482-7.052-15.482-15.482V9.546
			l65.967,65.967V338.523z"/>
	</g>
</g>
<g>
	<g>
		<path d="M286.188,118.346H275.18v-0.001c-1.72,0-2.838,1.118-2.838,2.838s1.118,2.838,2.838,2.838h8.171v77.837l-25.63-25.63
			c-1.118-1.118-2.838-1.118-3.956,0l-36.123,36.123c-1.118,1.118-1.118,2.838,0,3.956c0.602,0.602,1.118,0.86,1.978,0.86
			c0.86,0,1.376-0.258,1.978-0.86l34.145-34.145l27.609,27.609v57.195H68.849v-69.322l14.363-14.363l48.164,48.164
			c0.602,0.602,1.118,0.86,1.978,0.86s1.72-0.258,1.978-0.86c1.118-1.118,1.118-2.838,0-3.956L85.19,177.347
			c-1.118-1.118-2.838-1.118-3.956,0l-12.385,12.385v-65.709h178.723c1.72,0,2.838-1.118,2.838-2.838s-1.118-2.838-2.838-2.838
			H66.01c-1.72,0-2.838,1.118-2.838,2.838v148.534c0,1.72,1.118,2.838,2.838,2.838h219.92c1.72,0,2.838-1.376,3.096-2.838V121.184
			C289.026,119.464,287.908,118.346,286.188,118.346z"/>
	</g>
</g>
<g>
	<g>
		<path d="M233.466,239.357L150.9,156.791c-0.087-0.344-0.259-0.688-0.603-0.946c-1.118-1.118-2.838-1.118-3.956,0l-36.123,36.123
			c-1.118,1.118-1.118,2.838,0,3.956c0.602,0.602,1.118,0.86,1.978,0.86s1.376-0.258,1.978-0.86l33.973-33.973l81.363,81.363
			c0.602,0.602,1.118,0.86,1.978,0.86c0.86,0,1.72-0.258,1.978-0.86C234.585,242.195,234.585,240.476,233.466,239.357z"/>
	</g>
</g>
<g>
	<g>
		<path d="M222.802,153.867c-1.72,0-2.838,1.118-2.838,2.838c0,6.193-4.816,11.009-11.009,11.009
			c-6.193,0-11.009-5.074-11.009-11.009c0-6.192,5.075-11.009,11.009-11.009c2.236,0,4.214,0.602,6.192,1.978
			c1.376,1.118,3.096,0.86,3.956-0.602c1.118-1.376,0.86-3.097-0.602-3.956c-2.838-1.978-6.193-3.097-9.547-3.097
			c-9.289,0-16.599,7.311-16.599,16.599s7.569,16.599,16.599,16.599c9.288,0.086,16.685-7.225,16.685-16.513
			C225.64,154.985,224.521,153.867,222.802,153.867z"/>
	</g>
</g>
<g>
</g>
<g>
</g>
<g>
</g>
<g>
</g>
<g>
</g>
<g>
</g>
<g>
</g>
<g>
</g>
<g>
</g>
<g>
</g>
<g>
</g>
<g>
</g>
<g>
</g>
<g>
</g>
<g>
</g>
</svg>
